inDegrees=no
num_controls=7
num_derivatives=13
num_iterations=113
num_multipliers=7
num_parameters=0
num_slacks=7
num_states=26
objective=5.603741
objective_accelerations=0.807636
objective_balance=0.026273
objective_effort=0.246677
objective_height=4.403062
objective_ligament=0.120093
solver_duration=1341.122207
status=Solve_Succeeded
success=true
DataType=double
version=3
OpenSimVersion=4.4-2022-07-23-0e9fedc
endheader
time	/jointset/ground_pelvis/pelvis_tilt/value	/jointset/ground_pelvis/pelvis_tx/value	/jointset/ground_pelvis/pelvis_ty/value	/jointset/hip_l/hip_flexion_l/value	/jointset/hip_l/hip_adduction_l/value	/jointset/hip_l/hip_rotation_l/value	/jointset/back/lumbar_extension/value	/jointset/patellofemoral_l/patellar_flexion_l/value	/jointset/knee_l/knee_flexion_l/value	/jointset/knee_l/knee_adduction_l/value	/jointset/knee_l/knee_rotation_l/value	/jointset/ankle_l/ankle_angle_l/value	/jointset/subtalar_l/subtalar_angle_l/value	/jointset/ground_pelvis/pelvis_tilt/speed	/jointset/ground_pelvis/pelvis_tx/speed	/jointset/ground_pelvis/pelvis_ty/speed	/jointset/hip_l/hip_flexion_l/speed	/jointset/hip_l/hip_adduction_l/speed	/jointset/hip_l/hip_rotation_l/speed	/jointset/back/lumbar_extension/speed	/jointset/patellofemoral_l/patellar_flexion_l/speed	/jointset/knee_l/knee_flexion_l/speed	/jointset/knee_l/knee_adduction_l/speed	/jointset/knee_l/knee_rotation_l/speed	/jointset/ankle_l/ankle_angle_l/speed	/jointset/subtalar_l/subtalar_angle_l/speed	/forceset/tau_hip_flexion_l	/forceset/tau_hip_adduction_l	/forceset/tau_hip_rotation_l	/forceset/tau_knee_flexion_l	/forceset/tau_ankle_angle_l	/forceset/tau_subtalar_angle_l	/forceset/tau_lumbar_extension	lambda_cid13_p0	lambda_cid13_p1	lambda_cid13_p2	lambda_cid13_p3	lambda_cid13_p4	lambda_cid13_p5	lambda_cid14_p0	/jointset/ground_pelvis/pelvis_tilt/accel	/jointset/ground_pelvis/pelvis_tx/accel	/jointset/ground_pelvis/pelvis_ty/accel	/jointset/hip_l/hip_flexion_l/accel	/jointset/hip_l/hip_adduction_l/accel	/jointset/hip_l/hip_rotation_l/accel	/jointset/back/lumbar_extension/accel	/jointset/patellofemoral_l/patellar_flexion_l/accel	/jointset/knee_l/knee_flexion_l/accel	/jointset/knee_l/knee_adduction_l/accel	/jointset/knee_l/knee_rotation_l/accel	/jointset/ankle_l/ankle_angle_l/accel	/jointset/subtalar_l/subtalar_angle_l/accel	gamma_cid13_p0	gamma_cid13_p1	gamma_cid13_p2	gamma_cid13_p3	gamma_cid13_p4	gamma_cid13_p5	gamma_cid14_p0
1.5	-0.5742385930917806	-0.06062691550920322	0.7711090870464468	1.303309381043757	-0.3440495021380495	-0.0940394377834446	-0.3564930170522668	0.6474577658957603	0.6474577658957785	-0.04057572456473977	-0.174300164371332	0.02087002761246104	0.08410928777412048	1.105916374259949	0.5175298069694726	0.5620573231085045	-3.045584351085294	-0.00274210214556171	-0.5718095521012931	0.5819808316558884	-1.74431648324545	-1.744316483245458	-0.2068285325128164	0.008176414027313797	0.07812039321741387	0.02759613862611521	-0.2134736510491515	0.01172217560287044	0.003396966783808169	-0.07946037333974372	0.0506253904470646	0.01776604626830836	0.1739597050738801	-7.14522499922469	-7.576973335373846	2.197431106725557	-9.917550319942317	-430.8768914331105	-64.15284236376198	-17.18032542159616	1.071406396270389	1.041693161040063	-0.6650320736749671	-2.114071838670522	0.3487147817677247	-0.2075114803288742	2.172424052965659	-0.8100699976504888	-0.8100699976505107	-0.3653580830488154	0.2692631292322476	0.1885632717489989	0.4208949433028128	-3.592109127410912e-08	1.891945866908143e-06	3.184360438500416e-07	4.00997825636188e-07	2.949171418300596e-07	-3.033619127343382e-07	2.839582417309914e-07
1.51	-0.5631266042766049	-0.05540011244390061	0.7766952299183916	1.27275061393467	-0.3440603487445176	-0.09977171881458628	-0.3505663947719582	0.6299762888218836	0.6299762888217566	-0.04266159281205988	-0.1742093398734819	0.0216606242160496	0.08440545197417516	1.116304133147489	0.5277590334888651	0.5550458169172755	-3.065756383606324	0.0005741037410133697	-0.5745469248577347	0.603271740610384	-1.751752432911161	-1.751752432911164	-0.2103579202212242	0.01003482014243491	0.08000389351810992	0.03163957438854989	-0.2063910125159706	0.01162689203804405	0.003939708849172753	-0.0770810474525007	0.04646567659878637	0.01661185129107901	0.168677751040962	-8.309044932172208	-7.129212018066803	2.419923793881774	-8.976095375433866	-426.3426642236385	-63.57241924902274	-17.85111136624737	0.995878764108504	1.002882459291653	-0.7379943080236874	-1.90685956100598	0.3227017320436973	-0.2917470210623593	2.096641746794612	-0.6764246035566471	-0.6764246035556964	-0.3480923962964708	0.1512224683330962	0.189062485615916	0.3959414018480516	-1.353071375197732e-07	2.302956592377627e-06	1.014377174582679e-06	5.024788058485925e-07	2.017077433668115e-07	-2.190986339809712e-07	2.349716339255993e-07
1.52	-0.5519160542467552	-0.0500731481010231	0.7822075008451886	1.242002508379916	-0.3440381076441384	-0.1055283529428534	-0.3444290199160893	0.6124272388207156	0.6124272388207201	-0.04478302759232131	-0.1740985126915526	0.02247021963791937	0.08474202523368078	1.125628617199596	0.5375620624844517	0.5472829340790027	-3.083452040214782	0.003875439225266825	-0.5766801715246213	0.6241313467690207	-1.757831068677888	-1.757831068677887	-0.2139418391920401	0.0121769508848119	0.0819201568742433	0.0356779505163581	-0.1993083739828452	0.01153160847315084	0.004482450916295542	-0.07470172156530171	0.04230596275047192	0.01545765631374886	0.1633957970079966	-9.476180329990695	-6.678941546802502	2.639813151023111	-8.012597740246706	-421.8519566707652	-63.00642539811706	-18.5073257296768	0.8587514291831752	0.9564536562792072	-0.8153074030836722	-1.618796656156077	0.3457407013032784	-0.08668626241824665	2.086163493793698	-0.5386072178538249	-0.5386072178538723	-0.3762643355303398	0.3260080546831487	0.1951158828368887	0.4198830163776062	-1.908105307841618e-07	2.55179821487492e-06	1.376147772439379e-06	5.551819558858572e-07	1.597991504647617e-07	-1.633539812202693e-07	2.101194011002018e-07
1.53	-0.5406176664439446	-0.04465037009904915	0.7876384593087398	1.211089984191307	-0.3439827700943929	-0.1113039908074461	-0.3380856028835779	0.5948243035496469	0.5948243035494755	-0.04693995834910069	-0.1739653489236245	0.02329923617230879	0.08511915748690371	1.133852759595374	0.5469116017956732	0.5387888770852499	-3.098606430560535	0.007201301404770711	-0.5783962975136647	0.6444494834560219	-1.762512819643991	-1.762512819643976	-0.2174045022407256	0.01446360737835852	0.08389531824732253	0.03976254329867331	-0.1919875839675341	0.01124994367109093	0.004920405408161219	-0.07267543116043236	0.03869461836738234	0.01420595216383804	0.1578903069250563	-10.4752540554986	-6.196495071039191	2.832580215916458	-7.167446312642557	-417.4143507264712	-62.41727007779749	-19.14544826033	0.7748196704170068	0.9120249579441128	-0.8844012507902749	-1.396803506843434	0.3267989207031081	-0.2062721723684288	1.989252313946865	-0.3965264161182075	-0.3965264161159167	-0.3247122877639289	0.181305339771285	0.200616978824034	0.4042708938505315	-1.996886052559456e-07	2.628335165464264e-06	1.382862179115398e-06	5.560586613620366e-07	1.723976634714845e-07	-1.37910368576774e-07	2.109099416910484e-07
1.54	-0.5292429224120687	-0.03913653252608251	0.7929808879216995	1.180039307442607	-0.3438940159339756	-0.1170952292130099	-0.3315420817726429	0.5771818372927032	0.5771818372927471	-0.04913020473536458	-0.1738090564124753	0.02414838446327999	0.08553744036488765	1.140899863016897	0.5557739766829917	0.5295769639607961	-3.111082552228576	0.01055876136149591	-0.5798002797115805	0.6641521624547841	-1.765737265815287	-1.765737265815257	-0.2206049652184993	0.01680269959516269	0.08594650819162257	0.04390807546866894	-0.1846667939523524	0.01096827886882781	0.005358359902679972	-0.07064914075566033	0.03508327398420819	0.01295424801366023	0.1523848168420373	-11.47817497614069	-5.710239023538963	3.021157615877334	-6.290186832915784	-413.0209835812575	-61.83806344730154	-19.76192004211216	0.6233436343316018	0.8590207714989559	-0.9588786292238112	-1.083142920614045	0.3520602567473623	-0.02425750419301979	1.963071956145745	-0.2471462588924867	-0.247146258892478	-0.3238243213479307	0.3364951993344647	0.2103215970815266	0.432070893913802	-1.757394885345229e-07	2.547678477862884e-06	1.145894855736025e-06	5.229080033388482e-07	2.252902049521537e-07	-1.167686351482549e-07	2.254649028627047e-07
